[Header]
FileType HTR
DataType HTRS
FileVersion 1
NumSegments 36
NumFrames 4
DataFrameRate 120
EulerRotationOrder ZYX
CalibrationUnits mm
RotationUnits Degrees
GlobalAxisofGravity Y
BoneLengthAxis Y
ScaleFactor 1.0
[SegmentNames&Hierarchy]
Hips	GLOBAL
Spine	Hips
Spine1	Spine
Spine2	Spine1
Spine3	Spine2
Neck	Spine3
Head	Neck
HeadEnd	Head
RightShoulder	Spine3
RightArm	RightShoulder
RightForeArm	RightArm
RightForeArmRoll	RightForeArm
RightHand	RightForeArmRoll
RightHandEnd	RightHand
R_FingersEnd	RightHandEnd
RightHandThumb1	RightHand
RightHandThumb2	RightHandThumb1
LeftShoulder	Spine3
LeftArm	LeftShoulder
LeftForeArm	LeftArm
LeftForeArmRoll	LeftForeArm
LeftHand	LeftForeArmRoll
LeftHandEnd	LeftHand
L_FingersEnd	LeftHandEnd
LeftHandThumb1	LeftHand
LeftHandThumb2	LeftHandThumb1
RightUpLeg	Hips
RightLeg	RightUpLeg
RightFoot	RightLeg
RightToeBase	RightFoot
RightToeBaseEnd	RightToeBase
LeftUpLeg	Hips
LeftLeg	LeftUpLeg
LeftFoot	LeftLeg
LeftToeBase	LeftFoot
LeftToeBaseEnd	LeftToeBase
[BasePosition]
Hips	0	0	0	0	0	0	1
Spine	0	0	0	-10	-0	0	1
Spine1	0	0	0	5	0	0	1
Spine2	0	0	0	5	0	0	1
Spine3	0	0	0	0	0	0	1
Neck	0	0	0	10	0	0	1
Head	0	0	0	-10	-0	0	1
HeadEnd	0	0	0	0	0	0	1
RightShoulder	0	0	0	-180	-0	-180	1
RightArm	0	0	0	0	0	0	1
RightForeArm	0	0	0	0	0	0	1
RightForeArmRoll	0	0	0	0	0	0	1
RightHand	0	0	0	0	0	0	1
RightHandEnd	0	0	0	-90	-0	0	1
R_FingersEnd	0	0	0	0	0	0	1
RightHandThumb1	0	0	0	170	-0	-15	1
RightHandThumb2	0	0	0	0	0	0	1
LeftShoulder	0	0	0	0	0	0	1
LeftArm	0	0	0	0	0	0	1
LeftForeArm	0	0	0	0	0	0	1
LeftForeArmRoll	0	0	0	0	0	0	1
LeftHand	0	0	0	0	0	0	1
LeftHandEnd	0	0	0	90	0	0	1
L_FingersEnd	0	0	0	0	0	0	1
LeftHandThumb1	0	0	0	170	-0	-15	1
LeftHandThumb2	0	0	0	0	0	0	1
RightUpLeg	0	0	0	-0	90	0	1
RightLeg	0	0	0	0	0	0	1
RightFoot	0	0	0	0	-0	-70	1
RightToeBase	0	0	0	0	-0	-20	1
RightToeBaseEnd	0	0	0	0	0	0	1
LeftUpLeg	0	0	0	-0	90	0	1
LeftLeg	0	0	0	0	0	0	1
LeftFoot	0	0	0	0	-0	-70	1
LeftToeBase	0	0	0	0	-0	-20	1
LeftToeBaseEnd	0	0	0	0	0	0	1
[Hips]
83	-6.241936684	970.8786011	-21.01739883	-88.81517029	0.1275257766	0.1905098408	1.0
84	-6.271519184	970.8818359	-21.05140495	-88.82022858	0.1240616366	0.1910400093	1.0
85	-6.301983833	970.885498	-21.07652473	-88.82723236	0.1216363981	0.1886103302	1.0
86	-6.332549095	970.8894043	-21.09137344	-88.83795166	0.1214552596	0.1813443899	1.0
[Spine]
83	0	44.87670517	67.31505585	-0.2025642395	0.365958631	0.07486952096	1.0
84	0	44.87670517	67.31505585	-0.2057192326	0.3637359142	0.07409630716	1.0
85	0	44.87670517	67.31505585	-0.2070192248	0.3607578874	0.073493734	1.0
86	0	44.87670517	67.31505585	-0.2053045034	0.356500417	0.0731646046	1.0
[Spine1]
83	0	0	89.75341034	-0.5494047999	0.009959874675	0.002189896768	1.0
84	0	0	89.75341034	-0.5573221445	0.007843641564	0.001291640452	1.0
85	0	0	89.75341034	-0.5622023344	0.006672649179	0.000701479381	1.0
86	0	0	89.75341034	-0.5622811913	0.006802514661	0.0005534366937	1.0
[Spine2]
83	0	0	89.75341034	1.337396979	0.5001087785	0.4186309576	1.0
84	0	0	89.75341034	1.358975053	0.5045100451	0.4106098413	1.0
85	0	0	89.75341034	1.375638247	0.5059672594	0.402967602	1.0
86	0	0	89.75341034	1.385139942	0.5033185482	0.3956284523	1.0
[Spine3]
83	0	0	89.75341034	0.1042535678	-0.4170717597	-0.06509536505	1.0
84	0	0	89.75341034	0.1097485051	-0.4124091268	-0.07099747658	1.0
85	0	0	89.75341034	0.1134324819	-0.4096959233	-0.07453894615	1.0
86	0	0	89.75341034	0.1143892035	-0.4099368751	-0.0747500062	1.0
[Neck]
83	0	-33.65752792	235.6027069	-1.122886896	-0.1818498969	-0.1227236465	1.0
84	0	-33.65752792	235.6027069	-1.124773979	-0.1901542395	-0.1181760728	1.0
85	0	-33.65752792	235.6027069	-1.12453711	-0.1988326311	-0.1176903918	1.0
86	0	-33.65752792	235.6027069	-1.120947123	-0.209073633	-0.1232119501	1.0
[Head]
83	0	0	123.4109421	-0.8272339702	-0.1787083745	-1.074529409	1.0
84	0	0	123.4109421	-0.8358847499	-0.1831567138	-1.066332698	1.0
85	0	0	123.4109421	-0.8401241899	-0.1837433428	-1.058550954	1.0
86	0	0	123.4109421	-0.8374814391	-0.1778097898	-1.051258326	1.0
[HeadEnd]
83	0	0	145.2883301	0	0	0	1.0
84	0	0	145.2883301	0	0	0	1.0
85	0	0	145.2883301	0	0	0	1.0
86	0	0	145.2883301	0	0	0	1.0
[RightShoulder]
83	-30.74827576	-51.24713135	166.0407104	-4.513341427	-6.14231205	1.076523304	1.0
84	-30.74827576	-51.24713135	166.0407104	-4.482677937	-6.158546925	1.048469901	1.0
85	-30.74827576	-51.24713135	166.0407104	-4.459837914	-6.168121338	1.026952028	1.0
86	-30.74827576	-51.24713135	166.0407104	-4.447238922	-6.16804266	1.014485121	1.0
[RightArm]
83	152.7164459	0	0	-24.65882874	-69.39758301	4.018874168	1.0
84	152.7164459	0	0	-24.77109337	-69.38162994	4.110874176	1.0
85	152.7164459	0	0	-24.85635948	-69.37078094	4.19187212	1.0
86	152.7164459	0	0	-24.90803909	-69.36766815	4.264046669	1.0
[RightForeArm]
83	297.8946228	0	0	0	0	-31.2522831	1.0
84	297.8946228	0	0	0	0	-31.25296021	1.0
85	297.8946228	0	0	0	0	-31.25493813	1.0
86	297.8946228	0	0	0	0	-31.26035881	1.0
[RightForeArmRoll]
83	122.9768982	0	0	4.238419533	0	0	1.0
84	122.9768982	0	0	4.188610077	0	0	1.0
85	122.9768982	0	0	4.15771389	0	0	1.0
86	122.9768982	0	0	4.153938293	0	0	1.0
[RightHand]
83	127.1009369	0	0	6.009139497e-007	8.096125603	-2.996936798	1.0
84	127.1009369	0	0	1.181605967e-006	8.15811348	-2.997325182	1.0
85	127.1009369	0	0	1.091156491e-006	8.190349579	-2.997944832	1.0
86	127.1009369	0	0	-3.992150255e-008	8.178043365	-2.999410868	1.0
[RightHandEnd]
83	72.05677795	0	0	0	0	0	1.0
84	72.05677795	0	0	0	0	0	1.0
85	72.05677795	0	0	0	0	0	1.0
86	72.05677795	0	0	0	0	0	1.0
[R_FingersEnd]
83	72.05677795	0	0	0	0	0	1.0
84	72.05677795	0	0	0	0	0	1.0
85	72.05677795	0	0	0	0	0	1.0
86	72.05677795	0	0	0	0	0	1.0
[RightHandThumb1]
83	28.82271004	-48.03784943	19.2151413	0	0	0	1.0
84	28.82271004	-48.03784943	19.2151413	0	0	0	1.0
85	28.82271004	-48.03784943	19.2151413	0	0	0	1.0
86	28.82271004	-48.03784943	19.2151413	0	0	0	1.0
[RightHandThumb2]
83	72.05677795	0	0	0	0	0	1.0
84	72.05677795	0	0	0	0	0	1.0
85	72.05677795	0	0	0	0	0	1.0
86	72.05677795	0	0	0	0	0	1.0
[LeftShoulder]
83	30.74827576	-51.24713135	166.0407104	5.376456261	5.909323692	2.885885239	1.0
84	30.74827576	-51.24713135	166.0407104	5.368479252	5.889679432	2.903306484	1.0
85	30.74827576	-51.24713135	166.0407104	5.365569592	5.881597042	2.916302919	1.0
86	30.74827576	-51.24713135	166.0407104	5.369871616	5.890358925	2.922553301	1.0
[LeftArm]
83	152.7164459	0	0	3.388257504	68.86992645	-34.3515625	1.0
84	152.7164459	0	0	3.358635902	68.88560486	-34.34670639	1.0
85	152.7164459	0	0	3.364917994	68.89376831	-34.33323288	1.0
86	152.7164459	0	0	3.425012112	68.8911972	-34.3046608	1.0
[LeftForeArm]
83	297.8946228	0	0	0	0	-19.23794365	1.0
84	297.8946228	0	0	0	0	-19.24209976	1.0
85	297.8946228	0	0	0	0	-19.24233437	1.0
86	297.8946228	0	0	0	0	-19.23677826	1.0
[LeftForeArmRoll]
83	122.9768982	0	0	-4.205872536	0	0	1.0
84	122.9768982	0	0	-4.170475006	0	0	1.0
85	122.9768982	0	0	-4.214271069	0	0	1.0
86	122.9768982	0	0	-4.380474567	0	0	1.0
[LeftHand]
83	127.1009369	0	0	0.0005520143895	-20.18291092	1.419011235	1.0
84	127.1009369	0	0	0.0007660520496	-20.11893463	1.436696053	1.0
85	127.1009369	0	0	0.0006816231762	-20.12529755	1.397626638	1.0
86	127.1009369	0	0	3.695860505e-005	-20.23595619	1.270381093	1.0
[LeftHandEnd]
83	72.05677795	0	0	0	0	0	1.0
84	72.05677795	0	0	0	0	0	1.0
85	72.05677795	0	0	0	0	0	1.0
86	72.05677795	0	0	0	0	0	1.0
[L_FingersEnd]
83	72.05677795	0	0	0	0	0	1.0
84	72.05677795	0	0	0	0	0	1.0
85	72.05677795	0	0	0	0	0	1.0
86	72.05677795	0	0	0	0	0	1.0
[LeftHandThumb1]
83	28.82271004	-48.03784943	-19.2151413	0	0	0	1.0
84	28.82271004	-48.03784943	-19.2151413	0	0	0	1.0
85	28.82271004	-48.03784943	-19.2151413	0	0	0	1.0
86	28.82271004	-48.03784943	-19.2151413	0	0	0	1.0
[LeftHandThumb2]
83	72.05677795	0	0	0	0	0	1.0
84	72.05677795	0	0	0	0	0	1.0
85	72.05677795	0	0	0	0	0	1.0
86	72.05677795	0	0	0	0	0	1.0
[RightUpLeg]
83	-91.21989441	0	-26.64850616	9.392972946	4.264864922	-0.9170649052	1.0
84	-91.21989441	0	-26.64850616	9.394965172	4.264855862	-0.9077410698	1.0
85	-91.21989441	0	-26.64850616	9.399191856	4.259761333	-0.8966860175	1.0
86	-91.21989441	0	-26.64850616	9.406845093	4.246273994	-0.881321907	1.0
[RightLeg]
83	402.8824463	0	0	0	0	14.55365753	1.0
84	402.8824463	0	0	0	0	14.54425335	1.0
85	402.8824463	0	0	0	0	14.53665066	1.0
86	402.8824463	0	0	0	0	14.53081989	1.0
[RightFoot]
83	435.9781189	0	0	4.441541672	-1.757950544	-14.87408924	1.0
84	435.9781189	0	0	4.449936867	-1.765622973	-14.87409973	1.0
85	435.9781189	0	0	4.454875946	-1.768326163	-14.87403679	1.0
86	435.9781189	0	0	4.454954624	-1.762939215	-14.87432575	1.0
[RightToeBase]
83	183.1846619	0	0	0	0	0.5898288488	1.0
84	183.1846619	0	0	0	0	0.582408905	1.0
85	183.1846619	0	0	0	0	0.5949929357	1.0
86	183.1846619	0	0	0	0	0.6385231018	1.0
[RightToeBaseEnd]
83	73.79586792	0	0	0	0	0	1.0
84	73.79586792	0	0	0	0	0	1.0
85	73.79586792	0	0	0	0	0	1.0
86	73.79586792	0	0	0	0	0	1.0
[LeftUpLeg]
83	91.21989441	0	-26.64850616	0.722284317	-5.124575615	0.05713221058	1.0
84	91.21989441	0	-26.64850616	0.7132287025	-5.126348972	0.06676729769	1.0
85	91.21989441	0	-26.64850616	0.7102837563	-5.131439209	0.07944642007	1.0
86	91.21989441	0	-26.64850616	0.7164393663	-5.142272949	0.09778998792	1.0
[LeftLeg]
83	402.8824463	0	0	0	0	11.30252743	1.0
84	402.8824463	0	0	0	0	11.29279137	1.0
85	402.8824463	0	0	0	0	11.28206158	1.0
86	402.8824463	0	0	0	0	11.26961422	1.0
[LeftFoot]
83	435.9781189	0	0	-7.935832024	-0.2214806527	-12.64649963	1.0
84	435.9781189	0	0	-7.931685448	-0.2208640575	-12.64997005	1.0
85	435.9781189	0	0	-7.931847095	-0.2219119668	-12.6510849	1.0
86	435.9781189	0	0	-7.938692093	-0.2245231867	-12.64914131	1.0
[LeftToeBase]
83	183.1846619	0	0	0	0	0.8782106042	1.0
84	183.1846619	0	0	0	0	0.8945219517	1.0
85	183.1846619	0	0	0	0	0.9023559093	1.0
86	183.1846619	0	0	0	0	0.8982934952	1.0
[LeftToeBaseEnd]
83	73.79586792	0	0	0	0	0	1.0
84	73.79586792	0	0	0	0	0	1.0
85	73.79586792	0	0	0	0	0	1.0
86	73.79586792	0	0	0	0	0	1.0
[EndOfFile]
